<?xml version="1.0" encoding="UTF-8"?>
<svg id="Layer_1" xmlns="http://www.w3.org/2000/svg" viewBox="0 0 1045.49 1019.35">
  <defs>
    <style>
      .cls-1 {
        fill: #99f;
      }

      .cls-2 {
        fill: #00005b;
      }
    </style>
  </defs>
  <g id="Layer_2_1_-8">
    <g id="Surfaces">
      <g id="Video_Audio_Surface">
        <g id="Outline_no_shadow-3">
          <path id="path2194" class="cls-2" d="M185.14,0h675.21c102.38,0,185.14,82.77,185.14,185.14v649.07c0,102.37-82.76,185.14-185.14,185.14H185.14C82.77,1019.35,0,936.58,0,834.21V185.14C0,82.77,82.77,0,185.14,0Z"/>
        </g>
      </g>
    </g>
    <g id="Outlined_Mnemonics_Logos">
      <g id="Ae">
        <path id="path2199" class="cls-1" d="M419.94,609.87h-162.05l-33.11,102.8c-.87,3.92-4.35,6.53-8.27,6.1h-81.9c-4.8,0-6.1-2.61-4.8-7.84l140.27-402.08c1.31-4.36,2.61-8.28,4.36-13.51,1.74-9.15,2.61-18.73,2.61-28.32-.43-2.18,1.31-4.35,3.49-4.79h112.82c3.05,0,5.23,1.31,5.66,3.48l159,446.52c1.31,4.79,0,6.96-4.36,6.96h-91.05c-3.04.44-6.1-1.74-6.96-4.79l-35.73-104.55ZM283.16,523.17h110.64c-2.61-9.15-6.1-20.03-10.02-31.36-3.92-11.76-7.84-24.39-11.76-37.46-4.36-13.51-8.28-26.58-12.64-40.08-4.35-13.5-8.27-26.14-11.76-38.77-3.49-12.2-6.53-23.53-9.59-33.98h-.87c-3.92,18.73-8.72,37.46-14.81,56.2-6.53,20.91-13.07,42.69-20.04,64.47-5.66,22.22-12.63,42.68-19.16,60.98h0Z"/>
        <path id="path2201" class="cls-1" d="M816.36,569.79h-138.1c1.74,13.5,6.1,27.01,13.51,38.77,7.84,11.76,18.73,20.91,31.81,26.13,17.42,7.4,36.59,11.32,55.75,10.89,15.25-.44,30.5-1.74,45.3-4.8,13.51-1.74,26.57-5.23,38.77-10.02,2.18-1.74,3.48-.87,3.48,3.48v66.65c0,1.74-.43,3.48-.87,5.23-.87,1.31-1.74,2.18-3.05,3.05-13.94,6.1-28.31,10.45-43.56,13.07-20.48,3.92-40.95,5.66-61.85,5.23-33.11,0-60.99-5.23-83.64-15.24-21.35-9.15-40.08-23.53-54.89-41.39-13.94-16.99-23.96-36.15-30.06-57.06-6.1-20.48-9.15-41.82-9.15-63.61,0-23.52,3.48-46.61,10.89-69.26,6.97-21.78,17.86-41.82,32.68-59.68,14.37-17.43,32.24-31.36,52.71-41.38,20.48-10.02,44.87-13.51,72.75-13.51,23.09-.43,46.17,3.92,67.53,13.51,17.86,7.84,33.54,19.6,45.74,34.84,11.32,14.81,20.48,31.36,26.14,49.66,5.66,17.43,8.27,35.28,8.27,53.15,0,10.45-.43,19.6-.87,27.88-.87,8.28-1.31,14.37-1.74,18.29-.43,3.05-3.04,5.66-6.1,5.66-2.61,0-7.4.44-14.38.87-6.96.88-15.24,1.31-25.26,1.31s-20.48-1.74-31.8-1.74h0ZM678.26,506.19h91.92c11.33,0,19.6,0,24.83-.43,3.49-.44,6.98-1.31,10.02-3.49v-4.35c0-5.66-.88-10.89-2.61-16.12-7.84-24.4-30.93-40.95-56.63-40.08-23.96-1.31-46.61,11.33-57.94,33.11-5.23,10.02-8.28,20.48-9.59,31.36Z"/>
      </g>
    </g>
  </g>
</svg>