<?xml version="1.0" encoding="UTF-8"?>
<svg id="Layer_1" xmlns="http://www.w3.org/2000/svg" viewBox="0 0 364.82 372.33">
  <defs>
    <style>
      .cls-1 {
        fill: #d7282a;
      }

      .cls-1, .cls-2, .cls-3, .cls-4 {
        fill-rule: evenodd;
      }

      .cls-2 {
        fill: #45ac43;
      }

      .cls-3 {
        fill: #f4c300;
      }

      .cls-4 {
        fill: #5d7fbe;
      }
    </style>
  </defs>
  <path class="cls-1" d="M20.06,102.69c7.59-16.7,18.32-31.28,30.91-44.47C79.45,28.38,113.92,9.27,154.73,2.75c57.12-9.12,108.24,4.34,152.42,42.38,2.79,2.4,3.48,3.81.45,6.78-15.59,15.27-30.94,30.79-46.38,46.22-1.58,1.58-2.65,3.51-5.46.94-38.89-35.64-102.38-35.23-143.71,3.21-14.19,13.2-24.28,29.01-30.88,47.14-.96-.63-1.98-1.19-2.89-1.89-19.41-14.93-38.81-29.88-58.21-44.83Z"/>
  <path class="cls-2" d="M80.7,222.19c5.58,14.16,12.5,27.55,22.8,38.92,26.18,28.92,58.64,41.39,97.52,37.35,18.07-1.88,34.53-8,49.91-17.4,1.48,1.32,2.88,2.73,4.44,3.95,18,14.05,36.03,28.08,54.04,42.11-19.87,18.87-43.33,31.43-69.72,38.1-62.22,15.73-119.57,5.79-170.5-34.4-21.05-16.62-37.62-37.14-49.29-61.43,20.26-15.73,40.53-31.47,60.79-47.2Z"/>
  <path class="cls-4" d="M309.42,327.13c-18.02-14.03-36.04-28.06-54.04-42.11-1.56-1.22-2.96-2.63-4.44-3.95,12.2-9.31,22.38-20.32,29.06-34.31,2.66-5.58,4.54-11.42,6.31-17.32,1.22-4.07.84-5.65-4.19-5.61-29.99.25-59.98.13-89.97.12q-6.35,0-6.36-6.57c0-20.33.1-40.65-.09-60.98-.04-3.92.65-5.43,5.07-5.41,55.31.16,110.63.13,165.94.05,2.99,0,4.86.22,5.38,3.85,6.88,48.38,1.37,94.6-23.96,137.3-7.75,13.07-17.07,25.01-28.73,34.94Z"/>
  <path class="cls-3" d="M80.7,222.19c-20.26,15.73-40.53,31.46-60.79,47.2-9.9-18.4-15.6-38.16-18.27-58.75-4.61-35.67.46-69.99,15.59-102.71.83-1.8,1.88-3.49,2.83-5.24,19.4,14.94,38.8,29.89,58.21,44.82.91.7,1.92,1.26,2.89,1.89-8.13,24.21-7.72,48.48-.46,72.78Z"/>
</svg>