<?xml version="1.0" encoding="UTF-8" standalone="no"?>
<svg
   xmlns:dc="http://purl.org/dc/elements/1.1/"
   xmlns:cc="http://creativecommons.org/ns#"
   xmlns:rdf="http://www.w3.org/1999/02/22-rdf-syntax-ns#"
   xmlns:svg="http://www.w3.org/2000/svg"
   xmlns="http://www.w3.org/2000/svg"
   viewBox="0 0 853.33331 640"
   height="640"
   width="853.33331"
   xml:space="preserve"
   id="svg2"
   version="1.1"><metadata
     id="metadata8"><rdf:RDF><cc:Work
         rdf:about=""><dc:format>image/svg+xml</dc:format><dc:type
           rdf:resource="http://purl.org/dc/dcmitype/StillImage" /></cc:Work></rdf:RDF></metadata><defs
     id="defs6"><clipPath
       id="clipPath18"
       clipPathUnits="userSpaceOnUse"><path
         id="path16"
         d="M 0,480 H 640 V 0 H 0 Z" /></clipPath></defs><g
     transform="matrix(1.3333333,0,0,-1.3333333,0,640)"
     id="g10"><g
       id="g12"><g
         clip-path="url(#clipPath18)"
         id="g14"><g
           transform="translate(248.3306,393.8247)"
           id="g20"><path
             id="path22"
             style="fill:#ffffff;fill-opacity:1;fill-rule:nonzero;stroke:none"
             d="m 0,0 c 18.303,0 36.576,-0.184 54.848,0.122 12.131,-46.75 23.59,-93.685 35.415,-140.497 12.222,46.874 24.384,93.777 37.217,140.497 17.447,-0.275 34.926,-0.183 52.373,-0.061 0.336,-58.332 0.184,-116.694 0.062,-175.025 -13.72,0.244 -27.44,0.091 -41.19,0.153 -0.092,37.583 0.061,75.137 -0.031,112.69 -9.595,-37.584 -19.098,-75.259 -29.303,-112.69 -13.75,0.152 -27.531,-0.428 -41.281,0.366 -9.839,39.051 -20.32,77.949 -30.679,116.877 0.489,-39.05 0.214,-78.132 0.214,-117.182 -12.589,-0.123 -25.147,-0.123 -37.706,0 C 0.123,-116.51 -0.03,-58.24 0,0" /></g><g
           transform="translate(284.2339,105.9248)"
           id="g24"><path
             id="path26"
             style="fill:#ffffff;fill-opacity:1;fill-rule:nonzero;stroke:none"
             d="M 0,0 C -2.383,-8.983 -4.583,-17.997 -6.386,-27.103 H 6.723 C 4.706,-18.027 2.536,-8.952 0,0 m -10.969,12.437 c 7.364,-0.061 14.728,-0.092 22.122,-0.123 6.631,-22.123 13.353,-44.214 19.923,-66.336 -5.714,0.03 -11.398,0.091 -17.112,0.274 -1.222,4.706 -2.475,9.411 -3.728,14.117 -6.661,0.092 -13.291,0.092 -19.953,-0.061 -1.191,-4.767 -2.383,-9.534 -3.575,-14.3 h -16.714 c 6.508,22.092 12.712,44.275 19.037,66.429" /></g><g
           transform="translate(308.8931,118.2393)"
           id="g28"><path
             id="path30"
             style="fill:#ffffff;fill-opacity:1;fill-rule:nonzero;stroke:none"
             d="m 0,0 c 5.867,0.03 11.733,0.03 17.6,0 4.095,-9.228 7.853,-18.578 12.161,-27.714 3.973,9.197 7.914,18.395 11.795,27.652 5.776,0.092 11.581,0.124 17.387,0.124 -6.417,-10.91 -11.857,-22.368 -17.845,-33.521 -6.233,-9.778 -2.384,-21.878 -3.423,-32.786 -5.53,0 -11.092,-0.031 -16.622,-0.031 -0.305,8.953 0.794,18.028 -0.611,26.92 C 14.025,-26.064 6.905,-13.078 0,0" /></g><g
           transform="translate(391.6084,107.0859)"
           id="g32"><path
             id="path34"
             style="fill:#ffffff;fill-opacity:1;fill-rule:nonzero;stroke:none"
             d="M 0,0 C -2.384,-9.319 -4.37,-18.73 -6.845,-28.02 -2.322,-28.111 2.23,-28.233 6.753,-28.355 4.217,-18.975 2.261,-9.441 0,0 m -11.153,11.123 c 7.394,0.061 14.789,0.092 22.215,0.152 6.661,-22.153 13.108,-44.337 20.013,-66.398 -5.805,-0.092 -11.581,-0.061 -17.355,0.367 -1.131,4.705 -2.354,9.381 -3.789,13.964 C 3.3,-40.64 -3.3,-40.64 -9.9,-41.067 c -1.131,-4.705 -2.353,-9.412 -3.576,-14.117 -5.53,0.031 -11.091,0.061 -16.622,0.061 6.416,22.061 12.773,44.123 18.945,66.246" /></g><g
           transform="translate(108.9951,422.9448)"
           id="g36"><path
             id="path38"
             style="fill:#7fc5de;fill-opacity:1;fill-rule:nonzero;stroke:none"
             d="M 0,0 C 22.52,13.903 45.223,27.47 67.957,41.067 68.323,-63.954 67.743,-168.945 68.231,-273.966 57.659,-279.71 47.576,-286.311 37.217,-292.453 24.781,-299.817 12.528,-307.547 0.03,-314.789 -0.031,-209.86 0.03,-104.93 0,0" /></g><g
           transform="translate(248.3306,393.8247)"
           id="g40"><path
             id="path42"
             style="fill:#39a5cc;fill-opacity:1;fill-rule:nonzero;stroke:none"
             d="m 0,0 c -0.03,-58.24 0.123,-116.51 -0.061,-174.75 12.559,-0.123 25.117,-0.123 37.706,0 0,39.05 0.275,78.132 -0.214,117.182 10.359,-38.928 20.84,-77.826 30.679,-116.877 13.75,-0.794 27.531,-0.214 41.281,-0.366 10.205,37.431 19.708,75.106 29.303,112.69 0.092,-37.553 -0.061,-75.107 0.031,-112.69 13.75,-0.062 27.47,0.091 41.19,-0.153 0.122,58.331 0.274,116.693 -0.062,175.025 C 162.406,-0.061 144.927,-0.153 127.48,0.122 114.647,-46.598 102.485,-93.501 90.263,-140.375 78.438,-93.563 66.979,-46.628 54.848,0.122 36.576,-0.184 18.303,0 0,0 m -71.379,70.188 c 100.102,0.091 200.204,0.03 300.305,0.03 11.245,0.275 22.154,-9.228 22.459,-20.687 0.55,-16.347 -0.061,-32.725 0.184,-49.073 0.366,-81.646 0.214,-163.291 0.091,-244.937 -107.588,-0.551 -215.176,0.244 -322.764,-0.367 -0.489,105.021 0.092,210.012 -0.275,315.034" /></g><g
           transform="translate(380.4551,118.209)"
           id="g44"><path
             id="path46"
             style="fill:#36687f;fill-opacity:1;fill-rule:nonzero;stroke:none"
             d="m 0,0 c -6.172,-22.123 -12.528,-44.185 -18.944,-66.246 5.53,0 11.091,-0.03 16.622,-0.061 1.222,4.705 2.444,9.411 3.575,14.117 6.601,0.427 13.2,0.427 19.831,0.275 1.436,-4.583 2.658,-9.259 3.789,-13.964 5.774,-0.428 11.55,-0.459 17.356,-0.367 C 35.323,-44.185 28.876,-22.001 22.215,0.152 14.789,0.092 7.395,0.061 0,0 m -71.562,0.03 c 6.905,-13.078 14.025,-26.064 20.442,-39.356 1.405,-8.892 0.306,-17.967 0.611,-26.92 5.53,0 11.092,0.031 16.622,0.031 1.039,10.908 -2.81,23.008 3.423,32.786 5.988,11.154 11.428,22.612 17.845,33.521 -5.806,0 -11.611,-0.031 -17.387,-0.123 -3.881,-9.258 -7.822,-18.455 -11.795,-27.653 -4.308,9.136 -8.066,18.487 -12.161,27.714 -5.867,0.031 -11.733,0.031 -17.6,0 m -35.628,0.122 c -6.326,-22.153 -12.529,-44.337 -19.037,-66.428 h 16.714 c 1.192,4.766 2.384,9.533 3.575,14.299 6.662,0.154 13.292,0.154 19.953,0.062 1.253,-4.706 2.506,-9.411 3.728,-14.117 5.714,-0.183 11.398,-0.244 17.111,-0.275 -6.569,22.122 -13.292,44.214 -19.922,66.337 -7.394,0.031 -14.759,0.062 -22.122,0.122 m 226.634,275.922 c 10.359,0 20.717,0 31.076,-0.061 0.03,-126.105 0,-252.21 0.03,-378.284 -120.972,0.275 -241.913,-0.092 -362.854,0.183 -12.253,0.183 -23.314,11.458 -21.969,23.925 0,30.129 0,60.287 0.03,90.446 10.359,6.142 20.442,12.742 31.014,18.487 107.588,0.611 215.176,-0.184 322.764,0.367 0.123,81.645 0.276,163.291 -0.091,244.937" /></g><g
           transform="translate(284.2339,105.9248)"
           id="g48"><path
             id="path50"
             style="fill:#36687f;fill-opacity:1;fill-rule:nonzero;stroke:none"
             d="M 0,0 C 2.536,-8.952 4.706,-18.027 6.723,-27.103 H -6.386 C -4.583,-17.997 -2.383,-8.983 0,0" /></g><g
           transform="translate(391.6084,107.0859)"
           id="g52"><path
             id="path54"
             style="fill:#36687f;fill-opacity:1;fill-rule:nonzero;stroke:none"
             d="M 0,0 C 2.261,-9.441 4.217,-18.975 6.753,-28.355 2.23,-28.233 -2.322,-28.111 -6.845,-28.02 -4.37,-18.73 -2.384,-9.319 0,0" /></g></g></g></g></svg>